<?xml version="1.0" standalone="no"?>
<!DOCTYPE svg PUBLIC "-//W3C//DTD SVG 20010904//EN"
 "http://www.w3.org/TR/2001/REC-SVG-20010904/DTD/svg10.dtd">
<svg version="1.0" xmlns="http://www.w3.org/2000/svg"
 width="185.000000pt" height="185.000000pt" viewBox="0 0 185.000000 185.000000"
 preserveAspectRatio="xMidYMid meet">
<metadata>
Created by potrace 1.11, written by Peter Selinger 2001-2013
</metadata>
<g transform="translate(0.000000,185.000000) scale(0.100000,-0.100000)"
fill="#000000" stroke="none">
<path d="M695 1828 c-3 -13 -21 -266 -40 -563 -19 -297 -37 -569 -41 -605 -6
-65 -6 -65 -80 264 -40 181 -78 334 -84 340 -26 26 -47 -16 -131 -264 -69
-206 -87 -249 -93 -227 -3 15 -20 65 -37 112 l-31 85 -79 -1 -79 -1 0 -28 c0
-28 2 -28 50 -27 28 0 54 -4 59 -9 5 -5 27 -66 50 -135 45 -137 60 -165 83
-157 9 4 48 104 99 253 l83 246 83 -373 c45 -205 87 -383 93 -395 5 -13 18
-23 30 -23 12 0 21 8 25 23 2 12 21 263 41 557 32 479 44 614 44 509 0 -71
150 -1363 159 -1372 17 -17 45 -2 53 28 5 17 42 338 83 715 42 377 78 699 82
715 4 19 34 -180 83 -546 42 -316 80 -587 84 -602 7 -29 36 -37 53 -15 6 7 27
168 47 358 21 190 40 352 43 360 2 8 38 -81 78 -199 40 -117 80 -221 89 -229
25 -25 38 -3 86 143 23 72 45 133 49 137 3 4 31 9 61 10 52 3 55 5 58 31 l3
27 -80 0 c-93 0 -90 3 -131 -125 -12 -38 -25 -73 -29 -77 -4 -4 -44 105 -90
243 -50 151 -89 253 -98 256 -36 14 -44 -19 -74 -303 -17 -153 -33 -286 -36
-294 -3 -8 -41 248 -84 569 -43 321 -80 590 -83 597 -7 17 -42 18 -53 2 -4 -7
-44 -339 -89 -738 -56 -506 -83 -713 -88 -685 -3 22 -40 346 -81 720 -42 374
-78 688 -81 698 -8 26 -52 22 -59 -5z"/>
</g>
</svg>
